<svg height="511pt" viewBox="1 -43 511.999 511" width="511pt" xmlns="http://www.w3.org/2000/svg"><path d="m479.015625 425.222656h-241.535156c-15.390625 0-27.910157-12.519531-27.910157-27.910156v-23.847656c0-4.207032 3.40625-7.613282 7.609376-7.613282 4.207031 0 7.613281 3.410157 7.613281 7.613282v23.847656c0 6.996094 5.691406 12.6875 12.683593 12.6875h241.539063c9.792969 0 17.761719-7.96875 17.761719-17.761719v-145.125c0-9.792969-7.96875-17.761719-17.761719-17.761719h-13.699219c-4.207031 0-7.613281-3.40625-7.613281-7.609374 0-4.207032 3.40625-7.613282 7.613281-7.613282h13.699219c18.1875 0 32.984375 14.796875 32.984375 32.984375v145.125c0 18.1875-14.796875 32.984375-32.984375 32.984375zm0 0" fill="#afafaf"/><path d="m455.675781 236.964844c5.605469 0 10.148438-4.546875 10.148438-10.148438v-10.152344c0-5.605468-4.542969-10.148437-10.148438-10.148437h-37.042969v30.445313h37.042969zm0 0" fill="#699eb5"/><path d="m62.414062 267.410156c-34.46875 0-62.414062-27.945312-62.414062-62.414062s27.945312-62.414063 62.414062-62.414063c6.222657 0 12.226563.921875 17.894532 2.617188-5.3125-12.496094-8.253906-26.242188-8.253906-40.675781 0-57.449219 46.574218-104.023438 104.023437-104.023438 51.828125 0 94.792969 37.902344 102.710937 87.496094 12.109376-9.058594 27.144532-14.425782 43.429688-14.425782 40.078125 0 72.5625 32.488282 72.5625 72.5625 0 11.972657-2.917969 23.257813-8.050781 33.210938 1.480469-.148438 2.980469-.226562 4.5-.226562 24.382812 0 44.148437 19.765624 44.148437 44.148437s-19.765625 44.144531-44.148437 44.144531zm0 0" fill="#aac9e2"/><path d="m228.34375 373.96875h-21.3125c-2.800781 0-5.070312-2.269531-5.070312-5.070312v-20.300782h31.460937v20.300782c-.003906 2.800781-2.273437 5.070312-5.078125 5.070312zm0 0" fill="#525663"/><path d="m297.355469 145.625h-159.332031c-8.410157 0-15.222657 6.816406-15.222657 15.222656v182.675782c0 8.40625 6.8125 15.222656 15.222657 15.222656h159.332031c8.40625 0 15.222656-6.816406 15.222656-15.222656v-182.675782c0-8.40625-6.816406-15.222656-15.222656-15.222656zm0 0" fill="#747a89"/><path d="m312.578125 160.847656v182.675782c0 8.402343-6.820313 15.222656-15.222656 15.222656h-30.445313c8.402344 0 15.222656-6.820313 15.222656-15.222656v-182.675782c0-8.402344-6.820312-15.222656-15.222656-15.222656h30.445313c8.402343 0 15.222656 6.820312 15.222656 15.222656zm0 0" fill="#525663"/><path d="m316.636719 236.964844h-197.898438c-8.40625 0-15.222656-6.816406-15.222656-15.222656v-30.449219c0-8.40625 6.816406-15.222657 15.222656-15.222657h197.898438c8.410156 0 15.222656 6.816407 15.222656 15.222657v30.449219c0 8.40625-6.8125 15.222656-15.222656 15.222656zm0 0" fill="#97a1af"/><path d="m331.859375 191.328125v30.445313c0 8.402343-6.820313 15.222656-15.222656 15.222656h-30.445313c8.402344 0 15.222656-6.820313 15.222656-15.222656v-30.445313c0-8.40625-6.820312-15.226563-15.222656-15.226563h30.445313c8.402343 0 15.222656 6.820313 15.222656 15.226563zm0 0" fill="#647784"/><path d="m316.636719 328.300781h-197.898438c-8.40625 0-15.222656-6.816406-15.222656-15.222656v-30.445313c0-8.40625 6.816406-15.222656 15.222656-15.222656h197.898438c8.410156 0 15.222656 6.816406 15.222656 15.222656v30.445313c0 8.40625-6.8125 15.222656-15.222656 15.222656zm0 0" fill="#97a1af"/><path d="m331.859375 282.664062v30.445313c0 8.402344-6.820313 15.222656-15.222656 15.222656h-30.445313c8.402344 0 15.222656-6.820312 15.222656-15.222656v-30.445313c0-8.402343-6.820312-15.222656-15.222656-15.222656h30.445313c8.402343 0 15.222656 6.820313 15.222656 15.222656zm0 0" fill="#647784"/><path d="m146.648438 214.128906h-13.195313c-4.203125 0-7.609375-3.40625-7.609375-7.609375s3.40625-7.613281 7.609375-7.613281h13.195313c4.203124 0 7.609374 3.410156 7.609374 7.613281.003907 4.203125-3.40625 7.609375-7.609374 7.609375zm0 0" fill="#f2d67c"/><path d="m190.285156 214.128906h-13.191406c-4.203125 0-7.609375-3.40625-7.609375-7.609375s3.40625-7.613281 7.609375-7.613281h13.191406c4.207032 0 7.613282 3.410156 7.613282 7.613281s-3.40625 7.609375-7.613282 7.609375zm0 0" fill="#ea9292"/><path d="m300.90625 214.128906h-2.027344c-4.203125 0-7.613281-3.40625-7.613281-7.609375s3.410156-7.613281 7.613281-7.613281h2.027344c4.207031 0 7.613281 3.410156 7.613281 7.613281s-3.40625 7.609375-7.613281 7.609375zm0 0" fill="#f2d67c"/><path d="m146.648438 305.46875h-13.195313c-4.203125 0-7.609375-3.410156-7.609375-7.613281s3.40625-7.609375 7.609375-7.609375h13.195313c4.203124 0 7.609374 3.40625 7.609374 7.609375.003907 4.203125-3.40625 7.613281-7.609374 7.613281zm0 0" fill="#f2d67c"/><path d="m190.285156 305.46875h-13.191406c-4.203125 0-7.609375-3.410156-7.609375-7.613281s3.40625-7.609375 7.609375-7.609375h13.191406c4.207032 0 7.613282 3.40625 7.613282 7.609375s-3.40625 7.613281-7.613282 7.613281zm0 0" fill="#ea9292"/><path d="m300.90625 305.46875h-2.027344c-4.203125 0-7.613281-3.410156-7.613281-7.613281s3.410156-7.609375 7.613281-7.609375h2.027344c4.207031 0 7.613281 3.40625 7.613281 7.609375s-3.40625 7.613281-7.613281 7.613281zm0 0" fill="#f2d67c"/><path d="m308.519531 297.886719c0 4.03125-3.136719 7.335937-7.105469 7.582031v-15.164062c3.96875.246093 7.105469 3.554687 7.105469 7.582031zm0 0" fill="#e2b061"/><path d="m308.519531 206.550781c0 4.027344-3.136719 7.335938-7.105469 7.578125v-15.160156c3.96875.242188 7.105469 3.550781 7.105469 7.582031zm0 0" fill="#e2b061"/><g fill="#699eb5"><path d="m435.378906 223.261719c0 24.378906-19.769531 44.148437-44.148437 44.148437h-30.445313c24.375 0 44.148438-19.769531 44.148438-44.148437 0-24.375-19.773438-44.144531-44.148438-44.144531-1.523437 0-3.023437.078124-4.496094.222656 5.136719-9.949219 8.046876-21.230469 8.046876-33.207032 0-34.851562-24.570313-63.96875-57.328126-70.960937 4.902344-1.054687 9.996094-1.601563 15.210938-1.601563 40.078125 0 72.5625 32.484376 72.5625 72.5625 0 11.976563-2.910156 23.261719-8.046875 33.207032 1.472656-.140625 2.972656-.222656 4.496094-.222656 24.378906 0 44.148437 19.769531 44.148437 44.144531zm0 0"/><path d="m275.929688 75.316406h.003906c-.011719-.042968-.027344-.085937-.042969-.125-.035156-.128906-.066406-.253906-.105469-.382812h-.007812c-.003906 0-.003906 0-.003906 0-12.777344-42.960938-52.566407-74.308594-99.695313-74.308594-5.175781 0-10.25.375-15.222656 1.105469 44.828125 6.574219 80.355469 41.75 87.492187 86.382812 0 0-.003906.003907-.003906.003907s3.84375 17.722656 3.84375 38.605468c7.617188-24.949218 26.601562-38.605468 26.601562-38.605468-.691406-4.320313-1.652343-8.550782-2.859374-12.675782zm0 0"/></g></svg>